#!OML:ASF F:\VICON\USERDATA\INSTALL\rory3\rory3.ASF
:FULLY-SPECIFIED
:DEGREES
128
root 0.793925 14.394 -2.96033 2.18336 0.848272 4.83054
lowerback 28.4629 0.0844857 -4.16472
upperback 4.84945 -1.275 -1.32364
thorax -10.2351 -0.470853 1.37042
lowerneck -19.778 -1.61848 -7.02613
upperneck -2.81315 -0.814574 6.74575
head 2.30272 -0.0690708 3.15593
rclavicle 8.64713e-015 -3.23025e-015
rhumerus -20.3955 -15.1535 -74.1922
rradius 49.726
rwrist 9.20794
rhand -25.2081 4.66336
rfingers 7.12502
rthumb 1.31061 -25.3124
lclavicle 8.64713e-015 -3.23025e-015
lhumerus -25.1688 -11.5198 77.5504
lradius 35.3447
lwrist -16.0165
lhand -34.784 15.8307
lfingers 7.12502
lthumb -7.9363 45.6617
rfemur -51.0259 -6.305 9.92393
rtibia 98.6321
rfoot -34.2022 0.47241
rtoes -20.8975
lfemur -47.6506 8.99195 -26.169
ltibia 91.9079
lfoot -37.9803 -0.050711
ltoes -8.26082
129
root 0.78804 14.4743 -2.94077 2.19422 0.87122 4.76906
lowerback 28.2909 0.0428267 -4.21736
upperback 4.80489 -1.32945 -1.26329
thorax -10.1933 -0.494047 1.48659
lowerneck -20.3036 -1.53289 -6.63803
upperneck -2.7992 -0.73825 6.23751
head 2.36832 -0.0473123 2.94176
rclavicle -1.70955e-014 6.41081e-015
rhumerus -20.6045 -15.7178 -73.6548
rradius 51.992
rwrist 8.48456
rhand -25.7985 4.63204
rfingers 7.12502
rthumb 0.740385 -25.3464
lclavicle -1.70955e-014 6.41081e-015
lhumerus -25.8373 -13.4142 77.2253
lradius 36.5362
lwrist -16.6712
lhand -34.1829 15.426
lfingers 7.12502
lthumb -7.35607 45.2781
rfemur -50.517 -6.1719 10.1407
rtibia 97.8212
rfoot -33.9522 0.0197164
rtoes -21.027
lfemur -47.1242 8.81179 -26.0326
ltibia 91.1155
lfoot -37.7128 0.249562
ltoes -8.9813
130
root 0.781842 14.5677 -2.91817 2.17674 0.762922 4.56412
lowerback 28.092 0.0754869 -4.19562
upperback 4.75972 -1.25987 -1.15068
thorax -10.1453 -0.461801 1.5741
lowerneck -20.7608 -1.46628 -6.31916
upperneck -2.88533 -0.679112 5.84438
head 2.39674 -0.0305271 2.77341
rclavicle 3.86388e-015 -1.32192e-014
rhumerus -20.865 -16.2007 -72.9388
rradius 54.3146
rwrist 7.85494
rhand -27.1264 4.49437
rfingers 7.12502
rthumb -0.542182 -25.4847
lclavicle 3.86388e-015 -1.32192e-014
lhumerus -26.5968 -15.3489 76.867
lradius 38.0022
lwrist -16.5275
lhand -34.0695 15.1418
lfingers 7.12502
lthumb -7.24662 44.9977
rfemur -49.9132 -5.82771 10.5461
rtibia 96.8491
rfoot -33.6378 -0.480777
rtoes -20.9541
lfemur -46.5019 8.77567 -25.7107
ltibia 90.1788
lfoot -37.41 0.578536
ltoes -9.76132
131
root 0.775937 14.6742 -2.89304 2.10056 0.548893 4.28414
lowerback 27.912 0.139582 -4.14812
upperback 4.70869 -1.14446 -1.03891
thorax -10.1169 -0.408789 1.62998
lowerneck -21.1015 -1.38977 -6.07796
upperneck -3.16608 -0.600833 5.68987
head 2.35138 0.00521715 2.6935
rclavicle 1.18525e-014 8.49804e-015
rhumerus -21.2256 -16.5924 -72.0726
rradius 56.7554
rwrist 7.44494
rhand -27.8175 4.78524
rfingers 7.12502
rthumb -1.20962 -25.1911
lclavicle 1.18525e-014 8.49804e-015
lhumerus -27.453 -17.2188 76.3897
lradius 39.6971
lwrist -15.5922
lhand -33.684 15.0161
lfingers 7.12502
lthumb -6.87449 44.8845
rfemur -49.1939 -5.30008 11.0307
rtibia 95.7397
rfoot -33.3032 -0.934283
rtoes -20.5289
lfemur -45.7538 8.86877 -25.2881
ltibia 89.117
lfoot -37.059 0.737319
ltoes -10.3688
132
root 0.770573 14.7971 -2.86496 1.95817 0.412371 4.08139
lowerback 27.8416 0.185645 -4.11668
upperback 4.6184 -1.06877 -0.970234
thorax -10.1875 -0.371393 1.66217
lowerneck -21.1085 -1.29911 -6.0015
upperneck -3.70462 -0.488079 5.88957
head 2.18341 0.0705541 2.75246
rclavicle -1.51573e-015 -6.4605e-015
rhumerus -21.7182 -16.923 -71.0225
rradius 59.2953
rwrist 7.0475
rhand -27.9333 4.81555
rfingers 7.12502
rthumb -1.32153 -25.1601
lclavicle -1.51573e-015 -6.4605e-015
lhumerus -28.5378 -19.1473 75.8564
lradius 41.7299
lwrist -13.8929
lhand -33.2468 15.5735
lfingers 7.12502
lthumb -6.45246 45.4552
rfemur -48.2557 -4.8867 11.4029
rtibia 94.4744
rfoot -32.9644 -1.26323
rtoes -20.1147
lfemur -44.779 8.92308 -24.9296
ltibia 87.861
lfoot -36.613 0.56274
ltoes -10.0482
133
root 0.764502 14.9348 -2.83815 1.78423 0.408976 4.06208
lowerback 27.832 0.245586 -4.21412
upperback 4.52448 -1.01832 -0.927657
thorax -10.2899 -0.340554 1.74872
lowerneck -21.006 -1.28819 -6.0039
upperneck -4.25051 -0.468232 6.18538
head 2.00513 0.0917555 2.84646
rclavicle 2.08724e-015 -6.4605e-015
rhumerus -22.1587 -17.2828 -69.7429
rradius 61.7002
rwrist 6.85545
rhand -28.1187 4.50722
rfingers 7.12502
rthumb -1.50052 -25.4672
lclavicle 2.08724e-015 -6.4605e-015
lhumerus -29.6574 -21.3188 75.3493
lradius 43.9427
lwrist -11.5444
lhand -32.9724 16.7038
lfingers 7.12502
lthumb -6.18754 46.5934
rfemur -47.148 -4.69727 11.542
rtibia 93.0782
rfoot -32.6357 -1.52819
rtoes -19.9447
lfemur -43.6479 8.86477 -24.7816
ltibia 86.4065
lfoot -36.1186 0.364959
ltoes -9.43172
134
root 0.757922 15.0814 -2.81209 1.57903 0.412259 3.93099
lowerback 27.8428 0.298821 -4.20724
upperback 4.41104 -0.94531 -0.86376
thorax -10.4284 -0.301361 1.79153
lowerneck -21.0296 -1.3006 -5.93704
upperneck -4.52 -0.494909 6.42573
head 1.9312 0.0877969 2.90906
rclavicle 3.6154e-015 9.7156e-015
rhumerus -22.5886 -17.6176 -68.3183
rradius 63.9816
rwrist 6.89851
rhand -28.2149 4.25207
rfingers 7.12502
rthumb -1.59344 -25.7217
lclavicle 3.6154e-015 9.7156e-015
lhumerus -30.7874 -23.6587 74.8105
lradius 46.1557
lwrist -8.85995
lhand -33.0268 17.8433
lfingers 7.12502
lthumb -6.2401 47.7314
rfemur -45.9291 -4.44336 11.8029
rtibia 91.5139
rfoot -32.1698 -1.90776
rtoes -20.1352
lfemur -42.3689 8.83178 -24.5274
ltibia 84.7582
lfoot -35.5923 0.257197
ltoes -8.93846
